<svg xmlns="http://www.w3.org/2000/svg" xmlns:xlink="http://www.w3.org/1999/xlink" width="500" zoomAndPan="magnify" viewBox="0 0 375 374.999991" height="500" preserveAspectRatio="xMidYMid meet" version="1.0"><defs><g/><clipPath id="44f263af30"><path d="M 88.125 143.175781 L 103.132812 143.175781 L 103.132812 184.851562 L 88.125 184.851562 Z M 88.125 143.175781 " clip-rule="nonzero"/></clipPath><clipPath id="b0ae6375f4"><path d="M 0.125 0.175781 L 15.132812 0.175781 L 15.132812 41.851562 L 0.125 41.851562 Z M 0.125 0.175781 " clip-rule="nonzero"/></clipPath><clipPath id="632b2db3cf"><rect x="0" width="16" y="0" height="42"/></clipPath><clipPath id="e54b64ef0f"><path d="M 0.320312 311 L 296.480469 311 L 296.480469 357.359375 L 0.320312 357.359375 Z M 0.320312 311 " clip-rule="nonzero"/></clipPath><clipPath id="bf3899e8ab"><rect x="0" width="297" y="0" height="47"/></clipPath><clipPath id="b6dcdd689c"><path d="M 93.269531 166.472656 L 134.941406 166.472656 L 134.941406 181.480469 L 93.269531 181.480469 Z M 93.269531 166.472656 " clip-rule="nonzero"/></clipPath><clipPath id="2062832657"><path d="M 0.269531 0.472656 L 41.941406 0.472656 L 41.941406 15.480469 L 0.269531 15.480469 Z M 0.269531 0.472656 " clip-rule="nonzero"/></clipPath><clipPath id="c8eb32633e"><rect x="0" width="42" y="0" height="16"/></clipPath><clipPath id="57e9f617eb"><rect x="0" width="297" y="0" height="358"/></clipPath></defs><rect x="-37.5" width="450" fill="#ffffff" y="-37.499999" height="449.999989" fill-opacity="1"/><rect x="-37.5" width="450" fill="#ffffff" y="-37.499999" height="449.999989" fill-opacity="1"/><g transform="matrix(1, 0, 0, 1, 40, 0)"><g clip-path="url(#57e9f617eb)"><g fill="#000000" fill-opacity="1"><g transform="translate(77.796725, 281.44487)"><g><path d="M 24.953125 0 L 24.953125 -190.5 L 88.28125 -190.5 C 108.488281 -190.5 125.253906 -186.25 138.578125 -177.75 C 151.910156 -169.257812 161.929688 -157.8125 168.640625 -143.40625 C 175.347656 -129.007812 178.703125 -113.046875 178.703125 -95.515625 C 178.703125 -76.203125 175.03125 -59.390625 167.6875 -45.078125 C 160.351562 -30.765625 149.890625 -19.671875 136.296875 -11.796875 C 122.703125 -3.929688 106.695312 0 88.28125 0 Z M 165.015625 -95.515625 C 165.015625 -111.441406 162.015625 -125.664062 156.015625 -138.1875 C 150.023438 -150.707031 141.347656 -160.5 129.984375 -167.5625 C 118.628906 -174.625 104.726562 -178.15625 88.28125 -178.15625 L 38.640625 -178.15625 L 38.640625 -12.34375 L 88.28125 -12.34375 C 104.914062 -12.34375 118.957031 -16.007812 130.40625 -23.34375 C 141.851562 -30.675781 150.484375 -40.644531 156.296875 -53.25 C 162.109375 -65.863281 165.015625 -79.953125 165.015625 -95.515625 Z M 165.015625 -95.515625 "/></g></g></g><g fill="#ffffff" fill-opacity="1"><g transform="translate(15.444699, 247.738561)"><g><path d="M 24.953125 0 L 24.953125 -190.5 L 88.28125 -190.5 C 108.488281 -190.5 125.253906 -186.25 138.578125 -177.75 C 151.910156 -169.257812 161.929688 -157.8125 168.640625 -143.40625 C 175.347656 -129.007812 178.703125 -113.046875 178.703125 -95.515625 C 178.703125 -76.203125 175.03125 -59.390625 167.6875 -45.078125 C 160.351562 -30.765625 149.890625 -19.671875 136.296875 -11.796875 C 122.703125 -3.929688 106.695312 0 88.28125 0 Z M 165.015625 -95.515625 C 165.015625 -111.441406 162.015625 -125.664062 156.015625 -138.1875 C 150.023438 -150.707031 141.347656 -160.5 129.984375 -167.5625 C 118.628906 -174.625 104.726562 -178.15625 88.28125 -178.15625 L 38.640625 -178.15625 L 38.640625 -12.34375 L 88.28125 -12.34375 C 104.914062 -12.34375 118.957031 -16.007812 130.40625 -23.34375 C 141.851562 -30.675781 150.484375 -40.644531 156.296875 -53.25 C 162.109375 -65.863281 165.015625 -79.953125 165.015625 -95.515625 Z M 165.015625 -95.515625 "/></g></g></g><g fill="#4259d1" fill-opacity="1"><g transform="translate(21.786333, 236.29795)"><g><path d="M 24.953125 0 L 24.953125 -190.5 L 88.28125 -190.5 C 108.488281 -190.5 125.253906 -186.25 138.578125 -177.75 C 151.910156 -169.257812 161.929688 -157.8125 168.640625 -143.40625 C 175.347656 -129.007812 178.703125 -113.046875 178.703125 -95.515625 C 178.703125 -76.203125 175.03125 -59.390625 167.6875 -45.078125 C 160.351562 -30.765625 149.890625 -19.671875 136.296875 -11.796875 C 122.703125 -3.929688 106.695312 0 88.28125 0 Z M 165.015625 -95.515625 C 165.015625 -111.441406 162.015625 -125.664062 156.015625 -138.1875 C 150.023438 -150.707031 141.347656 -160.5 129.984375 -167.5625 C 118.628906 -174.625 104.726562 -178.15625 88.28125 -178.15625 L 38.640625 -178.15625 L 38.640625 -12.34375 L 88.28125 -12.34375 C 104.914062 -12.34375 118.957031 -16.007812 130.40625 -23.34375 C 141.851562 -30.675781 150.484375 -40.644531 156.296875 -53.25 C 162.109375 -65.863281 165.015625 -79.953125 165.015625 -95.515625 Z M 165.015625 -95.515625 "/></g></g></g><g clip-path="url(#44f263af30)"><g transform="matrix(1, 0, 0, 1, 88, 143)"><g clip-path="url(#632b2db3cf)"><g clip-path="url(#b0ae6375f4)"><path fill="#ffffff" d="M 0.125 0.175781 L 15.132812 0.175781 L 15.132812 41.859375 L 0.125 41.859375 Z M 0.125 0.175781 " fill-opacity="1" fill-rule="nonzero"/></g></g></g></g><g clip-path="url(#e54b64ef0f)"><g transform="matrix(1, 0, 0, 1, 0, 311)"><g clip-path="url(#bf3899e8ab)"><g fill="#ffffff" fill-opacity="1"><g transform="translate(3.573487, 38.238616)"><g><path d="M 13.328125 -26.390625 L 15.796875 -26.390625 L 19.546875 -16.953125 L 23.328125 -26.390625 L 25.828125 -26.390625 L 21.1875 -15.046875 L 26.28125 -3.03125 L 35.90625 -26.578125 L 38.75 -26.578125 L 27.484375 0 L 25.15625 0 L 19.578125 -13.140625 L 13.96875 0 L 11.6875 0 L 0.453125 -26.578125 L 3.25 -26.578125 L 12.921875 -3.03125 L 17.96875 -15.046875 Z M 13.328125 -26.390625 "/></g></g></g><g fill="#ffffff" fill-opacity="1"><g transform="translate(45.682248, 38.238616)"><g><path d="M 21.1875 -2.328125 L 21.1875 0 L 3.328125 0 L 3.328125 -26.578125 L 20.859375 -26.578125 L 20.859375 -24.265625 L 5.953125 -24.265625 L 5.953125 -14.671875 L 18.9375 -14.671875 L 18.9375 -12.46875 L 5.953125 -12.46875 L 5.953125 -2.328125 Z M 21.1875 -2.328125 "/></g></g></g><g fill="#ffffff" fill-opacity="1"><g transform="translate(71.434973, 38.238616)"><g><path d="M 23.328125 -6.84375 C 23.328125 -5.519531 22.988281 -4.34375 22.3125 -3.3125 C 21.632812 -2.28125 20.726562 -1.46875 19.59375 -0.875 C 18.457031 -0.289062 17.21875 0 15.875 0 L 3.328125 0 L 3.328125 -26.578125 L 16.140625 -26.578125 C 17.378906 -26.578125 18.453125 -26.242188 19.359375 -25.578125 C 20.273438 -24.921875 20.976562 -24.070312 21.46875 -23.03125 C 21.957031 -22 22.203125 -20.921875 22.203125 -19.796875 C 22.203125 -18.472656 21.863281 -17.25 21.1875 -16.125 C 20.507812 -15.007812 19.570312 -14.175781 18.375 -13.625 C 19.90625 -13.175781 21.113281 -12.335938 22 -11.109375 C 22.882812 -9.890625 23.328125 -8.46875 23.328125 -6.84375 Z M 20.703125 -7.296875 C 20.703125 -8.191406 20.5 -9.019531 20.09375 -9.78125 C 19.695312 -10.550781 19.15625 -11.171875 18.46875 -11.640625 C 17.789062 -12.117188 17.015625 -12.359375 16.140625 -12.359375 L 5.953125 -12.359375 L 5.953125 -2.28125 L 15.875 -2.28125 C 16.769531 -2.28125 17.578125 -2.515625 18.296875 -2.984375 C 19.023438 -3.460938 19.609375 -4.082031 20.046875 -4.84375 C 20.484375 -5.601562 20.703125 -6.421875 20.703125 -7.296875 Z M 5.953125 -24.296875 L 5.953125 -14.484375 L 15.09375 -14.484375 C 15.957031 -14.484375 16.726562 -14.710938 17.40625 -15.171875 C 18.082031 -15.640625 18.617188 -16.25 19.015625 -17 C 19.421875 -17.75 19.625 -18.546875 19.625 -19.390625 C 19.625 -20.285156 19.4375 -21.101562 19.0625 -21.84375 C 18.6875 -22.582031 18.171875 -23.175781 17.515625 -23.625 C 16.867188 -24.070312 16.132812 -24.296875 15.3125 -24.296875 Z M 5.953125 -24.296875 "/></g></g></g><g fill="#ffffff" fill-opacity="1"><g transform="translate(99.3211, 38.238616)"><g/></g></g><g fill="#ffffff" fill-opacity="1"><g transform="translate(111.824293, 38.238616)"><g><path d="M 3.328125 0 L 3.328125 -26.578125 L 12.359375 -26.578125 C 15.171875 -26.578125 17.519531 -25.984375 19.40625 -24.796875 C 21.289062 -23.617188 22.707031 -22.023438 23.65625 -20.015625 C 24.601562 -18.003906 25.078125 -15.773438 25.078125 -13.328125 C 25.078125 -10.628906 24.554688 -8.28125 23.515625 -6.28125 C 22.484375 -4.289062 21.015625 -2.742188 19.109375 -1.640625 C 17.203125 -0.546875 14.953125 0 12.359375 0 Z M 22.46875 -13.328125 C 22.46875 -15.453125 22.070312 -17.335938 21.28125 -18.984375 C 20.5 -20.628906 19.359375 -21.921875 17.859375 -22.859375 C 16.359375 -23.796875 14.523438 -24.265625 12.359375 -24.265625 L 5.953125 -24.265625 L 5.953125 -2.328125 L 12.359375 -2.328125 C 14.554688 -2.328125 16.398438 -2.8125 17.890625 -3.78125 C 19.390625 -4.75 20.523438 -6.0625 21.296875 -7.71875 C 22.078125 -9.382812 22.46875 -11.253906 22.46875 -13.328125 Z M 22.46875 -13.328125 "/></g></g></g><g fill="#ffffff" fill-opacity="1"><g transform="translate(141.544398, 38.238616)"><g><path d="M 21.1875 -2.328125 L 21.1875 0 L 3.328125 0 L 3.328125 -26.578125 L 20.859375 -26.578125 L 20.859375 -24.265625 L 5.953125 -24.265625 L 5.953125 -14.671875 L 18.9375 -14.671875 L 18.9375 -12.46875 L 5.953125 -12.46875 L 5.953125 -2.328125 Z M 21.1875 -2.328125 "/></g></g></g><g fill="#ffffff" fill-opacity="1"><g transform="translate(167.297123, 38.238616)"><g><path d="M 18.875 -21.59375 C 18.5 -22.019531 18.0625 -22.398438 17.5625 -22.734375 C 17.0625 -23.078125 16.5 -23.375 15.875 -23.625 C 15.25 -23.875 14.578125 -24.070312 13.859375 -24.21875 C 13.148438 -24.375 12.398438 -24.453125 11.609375 -24.453125 C 9.285156 -24.453125 7.578125 -24.003906 6.484375 -23.109375 C 5.398438 -22.222656 4.859375 -21.019531 4.859375 -19.5 C 4.859375 -18.457031 5.113281 -17.632812 5.625 -17.03125 C 6.144531 -16.4375 6.953125 -15.953125 8.046875 -15.578125 C 9.148438 -15.203125 10.546875 -14.8125 12.234375 -14.40625 C 14.140625 -14.007812 15.773438 -13.535156 17.140625 -12.984375 C 18.515625 -12.441406 19.578125 -11.703125 20.328125 -10.765625 C 21.078125 -9.828125 21.453125 -8.5625 21.453125 -6.96875 C 21.453125 -5.738281 21.210938 -4.675781 20.734375 -3.78125 C 20.265625 -2.882812 19.601562 -2.132812 18.75 -1.53125 C 17.90625 -0.9375 16.894531 -0.492188 15.71875 -0.203125 C 14.550781 0.078125 13.269531 0.21875 11.875 0.21875 C 10.5 0.21875 9.179688 0.078125 7.921875 -0.203125 C 6.660156 -0.492188 5.46875 -0.921875 4.34375 -1.484375 C 3.21875 -2.046875 2.171875 -2.757812 1.203125 -3.625 L 2.515625 -5.765625 C 2.984375 -5.265625 3.546875 -4.796875 4.203125 -4.359375 C 4.867188 -3.921875 5.609375 -3.523438 6.421875 -3.171875 C 7.234375 -2.828125 8.101562 -2.5625 9.03125 -2.375 C 9.96875 -2.1875 10.9375 -2.09375 11.9375 -2.09375 C 14.0625 -2.09375 15.71875 -2.476562 16.90625 -3.25 C 18.09375 -4.03125 18.6875 -5.179688 18.6875 -6.703125 C 18.6875 -7.796875 18.382812 -8.671875 17.78125 -9.328125 C 17.1875 -9.992188 16.289062 -10.539062 15.09375 -10.96875 C 13.894531 -11.394531 12.421875 -11.804688 10.671875 -12.203125 C 8.828125 -12.628906 7.265625 -13.101562 5.984375 -13.625 C 4.710938 -14.144531 3.757812 -14.835938 3.125 -15.703125 C 2.488281 -16.566406 2.171875 -17.707031 2.171875 -19.125 C 2.171875 -20.769531 2.578125 -22.160156 3.390625 -23.296875 C 4.203125 -24.441406 5.316406 -25.304688 6.734375 -25.890625 C 8.160156 -26.472656 9.796875 -26.765625 11.640625 -26.765625 C 12.816406 -26.765625 13.910156 -26.644531 14.921875 -26.40625 C 15.929688 -26.175781 16.863281 -25.832031 17.71875 -25.375 C 18.582031 -24.925781 19.390625 -24.367188 20.140625 -23.703125 Z M 18.875 -21.59375 "/></g></g></g><g fill="#ffffff" fill-opacity="1"><g transform="translate(192.974983, 38.238616)"><g><path d="M 3.328125 0 L 3.328125 -26.578125 L 5.953125 -26.578125 L 5.953125 0 Z M 3.328125 0 "/></g></g></g><g fill="#ffffff" fill-opacity="1"><g transform="translate(205.216185, 38.238616)"><g><path d="M 14 0.1875 C 12.226562 0.1875 10.582031 -0.191406 9.0625 -0.953125 C 7.539062 -1.710938 6.21875 -2.738281 5.09375 -4.03125 C 3.96875 -5.332031 3.097656 -6.78125 2.484375 -8.375 C 1.878906 -9.976562 1.578125 -11.628906 1.578125 -13.328125 C 1.578125 -15.117188 1.878906 -16.820312 2.484375 -18.4375 C 3.097656 -20.050781 3.953125 -21.476562 5.046875 -22.71875 C 6.148438 -23.96875 7.445312 -24.953125 8.9375 -25.671875 C 10.4375 -26.398438 12.078125 -26.765625 13.859375 -26.765625 C 16.472656 -26.765625 18.601562 -26.226562 20.25 -25.15625 C 21.894531 -24.082031 23.144531 -22.6875 24 -20.96875 L 21.96875 -19.625 C 21.125 -21.269531 19.988281 -22.476562 18.5625 -23.25 C 17.144531 -24.019531 15.5625 -24.40625 13.8125 -24.40625 C 12.34375 -24.40625 11.015625 -24.09375 9.828125 -23.46875 C 8.640625 -22.84375 7.617188 -22.003906 6.765625 -20.953125 C 5.921875 -19.910156 5.28125 -18.726562 4.84375 -17.40625 C 4.40625 -16.082031 4.1875 -14.710938 4.1875 -13.296875 C 4.1875 -11.796875 4.4375 -10.375 4.9375 -9.03125 C 5.4375 -7.695312 6.144531 -6.515625 7.0625 -5.484375 C 7.988281 -4.453125 9.054688 -3.640625 10.265625 -3.046875 C 11.484375 -2.460938 12.789062 -2.171875 14.1875 -2.171875 C 15.8125 -2.171875 17.347656 -2.578125 18.796875 -3.390625 C 20.242188 -4.203125 21.628906 -5.457031 22.953125 -7.15625 L 22.953125 -4.375 C 20.429688 -1.332031 17.445312 0.1875 14 0.1875 Z M 22.53125 -11.046875 L 16.625 -11.046875 L 16.625 -13.0625 L 24.75 -13.0625 L 24.75 0 L 22.53125 0 Z M 22.53125 -11.046875 "/></g></g></g><g fill="#ffffff" fill-opacity="1"><g transform="translate(234.973723, 38.238616)"><g><path d="M 5.953125 -21.75 L 5.953125 0 L 3.328125 0 L 3.328125 -26.578125 L 5.5 -26.578125 L 22.953125 -4.421875 L 22.953125 -26.546875 L 25.5625 -26.546875 L 25.5625 0 L 23.140625 0 Z M 5.953125 -21.75 "/></g></g></g><g fill="#ffffff" fill-opacity="1"><g transform="translate(266.82723, 38.238616)"><g><path d="M 18.875 -21.59375 C 18.5 -22.019531 18.0625 -22.398438 17.5625 -22.734375 C 17.0625 -23.078125 16.5 -23.375 15.875 -23.625 C 15.25 -23.875 14.578125 -24.070312 13.859375 -24.21875 C 13.148438 -24.375 12.398438 -24.453125 11.609375 -24.453125 C 9.285156 -24.453125 7.578125 -24.003906 6.484375 -23.109375 C 5.398438 -22.222656 4.859375 -21.019531 4.859375 -19.5 C 4.859375 -18.457031 5.113281 -17.632812 5.625 -17.03125 C 6.144531 -16.4375 6.953125 -15.953125 8.046875 -15.578125 C 9.148438 -15.203125 10.546875 -14.8125 12.234375 -14.40625 C 14.140625 -14.007812 15.773438 -13.535156 17.140625 -12.984375 C 18.515625 -12.441406 19.578125 -11.703125 20.328125 -10.765625 C 21.078125 -9.828125 21.453125 -8.5625 21.453125 -6.96875 C 21.453125 -5.738281 21.210938 -4.675781 20.734375 -3.78125 C 20.265625 -2.882812 19.601562 -2.132812 18.75 -1.53125 C 17.90625 -0.9375 16.894531 -0.492188 15.71875 -0.203125 C 14.550781 0.078125 13.269531 0.21875 11.875 0.21875 C 10.5 0.21875 9.179688 0.078125 7.921875 -0.203125 C 6.660156 -0.492188 5.46875 -0.921875 4.34375 -1.484375 C 3.21875 -2.046875 2.171875 -2.757812 1.203125 -3.625 L 2.515625 -5.765625 C 2.984375 -5.265625 3.546875 -4.796875 4.203125 -4.359375 C 4.867188 -3.921875 5.609375 -3.523438 6.421875 -3.171875 C 7.234375 -2.828125 8.101562 -2.5625 9.03125 -2.375 C 9.96875 -2.1875 10.9375 -2.09375 11.9375 -2.09375 C 14.0625 -2.09375 15.71875 -2.476562 16.90625 -3.25 C 18.09375 -4.03125 18.6875 -5.179688 18.6875 -6.703125 C 18.6875 -7.796875 18.382812 -8.671875 17.78125 -9.328125 C 17.1875 -9.992188 16.289062 -10.539062 15.09375 -10.96875 C 13.894531 -11.394531 12.421875 -11.804688 10.671875 -12.203125 C 8.828125 -12.628906 7.265625 -13.101562 5.984375 -13.625 C 4.710938 -14.144531 3.757812 -14.835938 3.125 -15.703125 C 2.488281 -16.566406 2.171875 -17.707031 2.171875 -19.125 C 2.171875 -20.769531 2.578125 -22.160156 3.390625 -23.296875 C 4.203125 -24.441406 5.316406 -25.304688 6.734375 -25.890625 C 8.160156 -26.472656 9.796875 -26.765625 11.640625 -26.765625 C 12.816406 -26.765625 13.910156 -26.644531 14.921875 -26.40625 C 15.929688 -26.175781 16.863281 -25.832031 17.71875 -25.375 C 18.582031 -24.925781 19.390625 -24.367188 20.140625 -23.703125 Z M 18.875 -21.59375 "/></g></g></g><g fill="#000000" fill-opacity="1"><g transform="translate(4.458751, 36.641555)"><g><path d="M 13.328125 -26.390625 L 15.796875 -26.390625 L 19.546875 -16.953125 L 23.328125 -26.390625 L 25.828125 -26.390625 L 21.1875 -15.046875 L 26.28125 -3.03125 L 35.90625 -26.578125 L 38.75 -26.578125 L 27.484375 0 L 25.15625 0 L 19.578125 -13.140625 L 13.96875 0 L 11.6875 0 L 0.453125 -26.578125 L 3.25 -26.578125 L 12.921875 -3.03125 L 17.96875 -15.046875 Z M 13.328125 -26.390625 "/></g></g></g><g fill="#000000" fill-opacity="1"><g transform="translate(46.567512, 36.641555)"><g><path d="M 21.1875 -2.328125 L 21.1875 0 L 3.328125 0 L 3.328125 -26.578125 L 20.859375 -26.578125 L 20.859375 -24.265625 L 5.953125 -24.265625 L 5.953125 -14.671875 L 18.9375 -14.671875 L 18.9375 -12.46875 L 5.953125 -12.46875 L 5.953125 -2.328125 Z M 21.1875 -2.328125 "/></g></g></g><g fill="#000000" fill-opacity="1"><g transform="translate(72.320237, 36.641555)"><g><path d="M 23.328125 -6.84375 C 23.328125 -5.519531 22.988281 -4.34375 22.3125 -3.3125 C 21.632812 -2.28125 20.726562 -1.46875 19.59375 -0.875 C 18.457031 -0.289062 17.21875 0 15.875 0 L 3.328125 0 L 3.328125 -26.578125 L 16.140625 -26.578125 C 17.378906 -26.578125 18.453125 -26.242188 19.359375 -25.578125 C 20.273438 -24.921875 20.976562 -24.070312 21.46875 -23.03125 C 21.957031 -22 22.203125 -20.921875 22.203125 -19.796875 C 22.203125 -18.472656 21.863281 -17.25 21.1875 -16.125 C 20.507812 -15.007812 19.570312 -14.175781 18.375 -13.625 C 19.90625 -13.175781 21.113281 -12.335938 22 -11.109375 C 22.882812 -9.890625 23.328125 -8.46875 23.328125 -6.84375 Z M 20.703125 -7.296875 C 20.703125 -8.191406 20.5 -9.019531 20.09375 -9.78125 C 19.695312 -10.550781 19.15625 -11.171875 18.46875 -11.640625 C 17.789062 -12.117188 17.015625 -12.359375 16.140625 -12.359375 L 5.953125 -12.359375 L 5.953125 -2.28125 L 15.875 -2.28125 C 16.769531 -2.28125 17.578125 -2.515625 18.296875 -2.984375 C 19.023438 -3.460938 19.609375 -4.082031 20.046875 -4.84375 C 20.484375 -5.601562 20.703125 -6.421875 20.703125 -7.296875 Z M 5.953125 -24.296875 L 5.953125 -14.484375 L 15.09375 -14.484375 C 15.957031 -14.484375 16.726562 -14.710938 17.40625 -15.171875 C 18.082031 -15.640625 18.617188 -16.25 19.015625 -17 C 19.421875 -17.75 19.625 -18.546875 19.625 -19.390625 C 19.625 -20.285156 19.4375 -21.101562 19.0625 -21.84375 C 18.6875 -22.582031 18.171875 -23.175781 17.515625 -23.625 C 16.867188 -24.070312 16.132812 -24.296875 15.3125 -24.296875 Z M 5.953125 -24.296875 "/></g></g></g><g fill="#000000" fill-opacity="1"><g transform="translate(100.206364, 36.641555)"><g/></g></g><g fill="#000000" fill-opacity="1"><g transform="translate(112.709557, 36.641555)"><g><path d="M 3.328125 0 L 3.328125 -26.578125 L 12.359375 -26.578125 C 15.171875 -26.578125 17.519531 -25.984375 19.40625 -24.796875 C 21.289062 -23.617188 22.707031 -22.023438 23.65625 -20.015625 C 24.601562 -18.003906 25.078125 -15.773438 25.078125 -13.328125 C 25.078125 -10.628906 24.554688 -8.28125 23.515625 -6.28125 C 22.484375 -4.289062 21.015625 -2.742188 19.109375 -1.640625 C 17.203125 -0.546875 14.953125 0 12.359375 0 Z M 22.46875 -13.328125 C 22.46875 -15.453125 22.070312 -17.335938 21.28125 -18.984375 C 20.5 -20.628906 19.359375 -21.921875 17.859375 -22.859375 C 16.359375 -23.796875 14.523438 -24.265625 12.359375 -24.265625 L 5.953125 -24.265625 L 5.953125 -2.328125 L 12.359375 -2.328125 C 14.554688 -2.328125 16.398438 -2.8125 17.890625 -3.78125 C 19.390625 -4.75 20.523438 -6.0625 21.296875 -7.71875 C 22.078125 -9.382812 22.46875 -11.253906 22.46875 -13.328125 Z M 22.46875 -13.328125 "/></g></g></g><g fill="#000000" fill-opacity="1"><g transform="translate(142.429662, 36.641555)"><g><path d="M 21.1875 -2.328125 L 21.1875 0 L 3.328125 0 L 3.328125 -26.578125 L 20.859375 -26.578125 L 20.859375 -24.265625 L 5.953125 -24.265625 L 5.953125 -14.671875 L 18.9375 -14.671875 L 18.9375 -12.46875 L 5.953125 -12.46875 L 5.953125 -2.328125 Z M 21.1875 -2.328125 "/></g></g></g><g fill="#000000" fill-opacity="1"><g transform="translate(168.182387, 36.641555)"><g><path d="M 18.875 -21.59375 C 18.5 -22.019531 18.0625 -22.398438 17.5625 -22.734375 C 17.0625 -23.078125 16.5 -23.375 15.875 -23.625 C 15.25 -23.875 14.578125 -24.070312 13.859375 -24.21875 C 13.148438 -24.375 12.398438 -24.453125 11.609375 -24.453125 C 9.285156 -24.453125 7.578125 -24.003906 6.484375 -23.109375 C 5.398438 -22.222656 4.859375 -21.019531 4.859375 -19.5 C 4.859375 -18.457031 5.113281 -17.632812 5.625 -17.03125 C 6.144531 -16.4375 6.953125 -15.953125 8.046875 -15.578125 C 9.148438 -15.203125 10.546875 -14.8125 12.234375 -14.40625 C 14.140625 -14.007812 15.773438 -13.535156 17.140625 -12.984375 C 18.515625 -12.441406 19.578125 -11.703125 20.328125 -10.765625 C 21.078125 -9.828125 21.453125 -8.5625 21.453125 -6.96875 C 21.453125 -5.738281 21.210938 -4.675781 20.734375 -3.78125 C 20.265625 -2.882812 19.601562 -2.132812 18.75 -1.53125 C 17.90625 -0.9375 16.894531 -0.492188 15.71875 -0.203125 C 14.550781 0.078125 13.269531 0.21875 11.875 0.21875 C 10.5 0.21875 9.179688 0.078125 7.921875 -0.203125 C 6.660156 -0.492188 5.46875 -0.921875 4.34375 -1.484375 C 3.21875 -2.046875 2.171875 -2.757812 1.203125 -3.625 L 2.515625 -5.765625 C 2.984375 -5.265625 3.546875 -4.796875 4.203125 -4.359375 C 4.867188 -3.921875 5.609375 -3.523438 6.421875 -3.171875 C 7.234375 -2.828125 8.101562 -2.5625 9.03125 -2.375 C 9.96875 -2.1875 10.9375 -2.09375 11.9375 -2.09375 C 14.0625 -2.09375 15.71875 -2.476562 16.90625 -3.25 C 18.09375 -4.03125 18.6875 -5.179688 18.6875 -6.703125 C 18.6875 -7.796875 18.382812 -8.671875 17.78125 -9.328125 C 17.1875 -9.992188 16.289062 -10.539062 15.09375 -10.96875 C 13.894531 -11.394531 12.421875 -11.804688 10.671875 -12.203125 C 8.828125 -12.628906 7.265625 -13.101562 5.984375 -13.625 C 4.710938 -14.144531 3.757812 -14.835938 3.125 -15.703125 C 2.488281 -16.566406 2.171875 -17.707031 2.171875 -19.125 C 2.171875 -20.769531 2.578125 -22.160156 3.390625 -23.296875 C 4.203125 -24.441406 5.316406 -25.304688 6.734375 -25.890625 C 8.160156 -26.472656 9.796875 -26.765625 11.640625 -26.765625 C 12.816406 -26.765625 13.910156 -26.644531 14.921875 -26.40625 C 15.929688 -26.175781 16.863281 -25.832031 17.71875 -25.375 C 18.582031 -24.925781 19.390625 -24.367188 20.140625 -23.703125 Z M 18.875 -21.59375 "/></g></g></g><g fill="#000000" fill-opacity="1"><g transform="translate(193.860247, 36.641555)"><g><path d="M 3.328125 0 L 3.328125 -26.578125 L 5.953125 -26.578125 L 5.953125 0 Z M 3.328125 0 "/></g></g></g><g fill="#000000" fill-opacity="1"><g transform="translate(206.101449, 36.641555)"><g><path d="M 14 0.1875 C 12.226562 0.1875 10.582031 -0.191406 9.0625 -0.953125 C 7.539062 -1.710938 6.21875 -2.738281 5.09375 -4.03125 C 3.96875 -5.332031 3.097656 -6.78125 2.484375 -8.375 C 1.878906 -9.976562 1.578125 -11.628906 1.578125 -13.328125 C 1.578125 -15.117188 1.878906 -16.820312 2.484375 -18.4375 C 3.097656 -20.050781 3.953125 -21.476562 5.046875 -22.71875 C 6.148438 -23.96875 7.445312 -24.953125 8.9375 -25.671875 C 10.4375 -26.398438 12.078125 -26.765625 13.859375 -26.765625 C 16.472656 -26.765625 18.601562 -26.226562 20.25 -25.15625 C 21.894531 -24.082031 23.144531 -22.6875 24 -20.96875 L 21.96875 -19.625 C 21.125 -21.269531 19.988281 -22.476562 18.5625 -23.25 C 17.144531 -24.019531 15.5625 -24.40625 13.8125 -24.40625 C 12.34375 -24.40625 11.015625 -24.09375 9.828125 -23.46875 C 8.640625 -22.84375 7.617188 -22.003906 6.765625 -20.953125 C 5.921875 -19.910156 5.28125 -18.726562 4.84375 -17.40625 C 4.40625 -16.082031 4.1875 -14.710938 4.1875 -13.296875 C 4.1875 -11.796875 4.4375 -10.375 4.9375 -9.03125 C 5.4375 -7.695312 6.144531 -6.515625 7.0625 -5.484375 C 7.988281 -4.453125 9.054688 -3.640625 10.265625 -3.046875 C 11.484375 -2.460938 12.789062 -2.171875 14.1875 -2.171875 C 15.8125 -2.171875 17.347656 -2.578125 18.796875 -3.390625 C 20.242188 -4.203125 21.628906 -5.457031 22.953125 -7.15625 L 22.953125 -4.375 C 20.429688 -1.332031 17.445312 0.1875 14 0.1875 Z M 22.53125 -11.046875 L 16.625 -11.046875 L 16.625 -13.0625 L 24.75 -13.0625 L 24.75 0 L 22.53125 0 Z M 22.53125 -11.046875 "/></g></g></g><g fill="#000000" fill-opacity="1"><g transform="translate(235.858987, 36.641555)"><g><path d="M 5.953125 -21.75 L 5.953125 0 L 3.328125 0 L 3.328125 -26.578125 L 5.5 -26.578125 L 22.953125 -4.421875 L 22.953125 -26.546875 L 25.5625 -26.546875 L 25.5625 0 L 23.140625 0 Z M 5.953125 -21.75 "/></g></g></g><g fill="#000000" fill-opacity="1"><g transform="translate(267.712494, 36.641555)"><g><path d="M 18.875 -21.59375 C 18.5 -22.019531 18.0625 -22.398438 17.5625 -22.734375 C 17.0625 -23.078125 16.5 -23.375 15.875 -23.625 C 15.25 -23.875 14.578125 -24.070312 13.859375 -24.21875 C 13.148438 -24.375 12.398438 -24.453125 11.609375 -24.453125 C 9.285156 -24.453125 7.578125 -24.003906 6.484375 -23.109375 C 5.398438 -22.222656 4.859375 -21.019531 4.859375 -19.5 C 4.859375 -18.457031 5.113281 -17.632812 5.625 -17.03125 C 6.144531 -16.4375 6.953125 -15.953125 8.046875 -15.578125 C 9.148438 -15.203125 10.546875 -14.8125 12.234375 -14.40625 C 14.140625 -14.007812 15.773438 -13.535156 17.140625 -12.984375 C 18.515625 -12.441406 19.578125 -11.703125 20.328125 -10.765625 C 21.078125 -9.828125 21.453125 -8.5625 21.453125 -6.96875 C 21.453125 -5.738281 21.210938 -4.675781 20.734375 -3.78125 C 20.265625 -2.882812 19.601562 -2.132812 18.75 -1.53125 C 17.90625 -0.9375 16.894531 -0.492188 15.71875 -0.203125 C 14.550781 0.078125 13.269531 0.21875 11.875 0.21875 C 10.5 0.21875 9.179688 0.078125 7.921875 -0.203125 C 6.660156 -0.492188 5.46875 -0.921875 4.34375 -1.484375 C 3.21875 -2.046875 2.171875 -2.757812 1.203125 -3.625 L 2.515625 -5.765625 C 2.984375 -5.265625 3.546875 -4.796875 4.203125 -4.359375 C 4.867188 -3.921875 5.609375 -3.523438 6.421875 -3.171875 C 7.234375 -2.828125 8.101562 -2.5625 9.03125 -2.375 C 9.96875 -2.1875 10.9375 -2.09375 11.9375 -2.09375 C 14.0625 -2.09375 15.71875 -2.476562 16.90625 -3.25 C 18.09375 -4.03125 18.6875 -5.179688 18.6875 -6.703125 C 18.6875 -7.796875 18.382812 -8.671875 17.78125 -9.328125 C 17.1875 -9.992188 16.289062 -10.539062 15.09375 -10.96875 C 13.894531 -11.394531 12.421875 -11.804688 10.671875 -12.203125 C 8.828125 -12.628906 7.265625 -13.101562 5.984375 -13.625 C 4.710938 -14.144531 3.757812 -14.835938 3.125 -15.703125 C 2.488281 -16.566406 2.171875 -17.707031 2.171875 -19.125 C 2.171875 -20.769531 2.578125 -22.160156 3.390625 -23.296875 C 4.203125 -24.441406 5.316406 -25.304688 6.734375 -25.890625 C 8.160156 -26.472656 9.796875 -26.765625 11.640625 -26.765625 C 12.816406 -26.765625 13.910156 -26.644531 14.921875 -26.40625 C 15.929688 -26.175781 16.863281 -25.832031 17.71875 -25.375 C 18.582031 -24.925781 19.390625 -24.367188 20.140625 -23.703125 Z M 18.875 -21.59375 "/></g></g></g></g></g></g><g clip-path="url(#b6dcdd689c)"><g transform="matrix(1, 0, 0, 1, 93, 166)"><g clip-path="url(#c8eb32633e)"><g clip-path="url(#2062832657)"><path fill="#ffffff" d="M 41.941406 0.472656 L 41.941406 15.480469 L 0.261719 15.480469 L 0.261719 0.472656 Z M 41.941406 0.472656 " fill-opacity="1" fill-rule="nonzero"/></g></g></g></g></g></g></svg>